<?xml version="1.0" encoding="utf-8"?>
<!-- Generator: Adobe Illustrator 17.0.0, SVG Export Plug-In . SVG Version: 6.00 Build 0)  -->
<!DOCTYPE svg PUBLIC "-//W3C//DTD SVG 1.1//EN" "http://www.w3.org/Graphics/SVG/1.1/DTD/svg11.dtd">
<svg version="1.1" id="Mini-dashboard" xmlns="http://www.w3.org/2000/svg" xmlns:xlink="http://www.w3.org/1999/xlink" x="0px"
	 y="0px" width="294.988px" height="128.961px" viewBox="0 0 294.988 128.961" enable-background="new 0 0 294.988 128.961"
	 xml:space="preserve">
<path fill="#FFFFFF" d="M49.157,101.348L34.44,68.273l-14.414,33.074H-1.214l25.033-50.522L0,0h23.971l12.29,29.738L49.763,0h20.786
	L47.032,47.033l26.096,54.315H49.157z"/>
<path fill="#FFFFFF" d="M90.645,27.339c-7.218,2.03-13.748-0.11-15.672-6.954c-1.825-6.492,2.633-11.723,9.852-13.752
	c7.062-1.984,13.701-0.063,15.575,6.604C102.421,20.432,97.551,25.398,90.645,27.339z M78.736,101.348V36.963l21.24-5.008v69.393
	H78.736z"/>
<path fill="#FFFFFF" d="M111.045,129.112V15.324l21.392-4.551v10.924c4.551-6.524,10.014-9.559,16.688-9.559
	c14.566,0,23.82,10.924,23.82,41.115c0,30.496-11.075,49.611-32.467,49.611c-2.883,0-5.614-0.303-8.042-1.063v22.91L111.045,129.112
	z M137.595,26.4c-1.82,0-3.945,0.454-5.159,1.213v60.839c1.518,0.759,3.338,1.364,5.614,1.364c8.647,0,12.744-12.743,12.744-32.921
	C150.794,35.807,146.243,26.4,137.595,26.4z"/>
<path fill="#FFFFFF" d="M196.834,103.018c-5.613,0-15.172-1.67-20.178-4.248l4.551-16.234c4.097,2.883,8.951,4.703,13.655,4.703
	c6.676,0,10.013-3.641,10.013-9.559c0-4.096-2.428-7.131-6.372-9.709l-6.827-4.553c-7.282-4.703-13.351-11.529-13.351-24.881
	c0-17.902,14.262-26.551,28.067-26.551c7.434,0,14.716,1.973,18.509,3.642l-4.097,16.081c-3.033-2.275-6.826-4.247-11.227-4.247
	c-5.462,0-10.013,3.186-10.013,9.255c0,5.006,2.73,7.586,6.371,10.014l6.069,4.096c8.495,5.766,14.565,12.138,14.565,24.426
	C226.571,92.094,216.86,103.018,196.834,103.018z"/>
<path fill="#FFFFFF" d="M270.107,99.527c-3.186,10.621-11.984,29.434-30.95,29.434l-5.462-17.752h8.193
	c6.068,0,9.254-3.185,10.923-9.861l-23.667-87.692h22.605l11.986,55.073l11.681-55.073h19.572L270.107,99.527z"/>
</svg>
